<svg width="19" height="15" viewBox="0 0 19 15" fill="none" xmlns="http://www.w3.org/2000/svg">
<path d="M16.4311 0.905706C16.5428 0.791758 16.6761 0.701234 16.8232 0.639436C16.9703 0.577638 17.1282 0.545807 17.2878 0.545807C17.4473 0.545807 17.6053 0.577638 17.7524 0.639436C17.8995 0.701234 18.0328 0.791758 18.1444 0.905706C18.6124 1.37862 18.619 2.14282 18.1608 2.62392L8.48479 14.0623C8.37493 14.183 8.24161 14.2799 8.093 14.3473C7.94438 14.4146 7.78359 14.4509 7.62045 14.454C7.45732 14.4571 7.29528 14.4268 7.14424 14.3651C6.99319 14.3034 6.85633 14.2115 6.74202 14.0951L0.854267 8.12876C0.627196 7.89719 0.5 7.5858 0.5 7.26147C0.5 6.93715 0.627196 6.62576 0.854267 6.39418C0.965944 6.28023 1.09923 6.18971 1.24633 6.12791C1.39342 6.06611 1.55137 6.03428 1.71092 6.03428C1.87047 6.03428 2.02842 6.06611 2.17551 6.12791C2.32261 6.18971 2.4559 6.28023 2.56757 6.39418L7.56186 11.4556L16.3984 0.941707C16.4086 0.929061 16.4195 0.917038 16.4311 0.905706Z" fill="white"/>
</svg>
