<svg width="16" height="16" viewBox="0 0 16 16" fill="none" xmlns="http://www.w3.org/2000/svg">
<rect width="16" height="16" rx="8" fill="#70BE71"/>
<path d="M11.0805 5.0692C11.1301 5.01855 11.1894 4.97832 11.2548 4.95085C11.3201 4.92339 11.3903 4.90924 11.4612 4.90924C11.5321 4.90924 11.6023 4.92339 11.6677 4.95085C11.7331 4.97832 11.7923 5.01855 11.842 5.0692C12.05 5.27938 12.0529 5.61903 11.8492 5.83285L7.54879 10.9166C7.49997 10.9702 7.44072 11.0133 7.37467 11.0432C7.30861 11.0732 7.23715 11.0893 7.16465 11.0907C7.09214 11.092 7.02012 11.0786 6.95299 11.0511C6.88586 11.0237 6.82504 10.9829 6.77423 10.9311L4.15745 8.27944C4.05653 8.17652 4 8.03813 4 7.89398C4 7.74984 4.05653 7.61144 4.15745 7.50852C4.20709 7.45787 4.26633 7.41764 4.3317 7.39018C4.39708 7.36271 4.46728 7.34856 4.53819 7.34856C4.6091 7.34856 4.6793 7.36271 4.74467 7.39018C4.81005 7.41764 4.86929 7.45787 4.91892 7.50852L7.1386 9.75802L11.066 5.0852C11.0705 5.07958 11.0753 5.07423 11.0805 5.0692Z" fill="white"/>
</svg>
