<svg width="12" height="21" viewBox="0 0 12 21" fill="none" xmlns="http://www.w3.org/2000/svg">
<path d="M9.66428 19.712L0 10.496L9.66428 1.28C9.92769 1.02964 10.2811 0.892775 10.6468 0.899527C11.0125 0.906278 11.3604 1.05609 11.6142 1.316C11.8679 1.57591 12.0066 1.92464 11.9998 2.28546C11.9929 2.64628 11.8411 2.98964 11.5777 3.24L3.96463 10.496L11.5777 17.76C11.8411 18.0104 11.9929 18.3537 11.9998 18.7145C12.0066 19.0754 11.8679 19.4241 11.6142 19.684C11.3604 19.9439 11.0125 20.0937 10.6468 20.1005C10.2811 20.1072 9.92769 19.9704 9.66428 19.72V19.712Z" fill="#D1D3DA"/>
</svg>
