<svg width="95" height="15" viewBox="0 0 95 15" fill="none" xmlns="http://www.w3.org/2000/svg">
<path d="M5.99449 2.03278C6.64885 0.677592 6.97603 0 7.50001 0C8.02396 0 8.35112 0.677592 9.00554 2.03278L10.1374 4.37684L12.761 4.81784C14.1271 5.04748 14.8102 5.1623 14.9697 5.64173C15.1292 6.12116 14.6522 6.6259 13.6984 7.6354L11.7674 9.67885L12.1769 12.4233C12.3927 13.8696 12.5007 14.5927 12.0789 14.8917C11.6571 15.1908 11.0156 14.8459 9.73266 14.1561L7.50001 12.9557L5.26735 14.1561C3.98438 14.8459 3.3429 15.1908 2.92111 14.8917C2.49932 14.5927 2.60723 13.8696 2.82308 12.4233L3.23265 9.67885L1.30167 7.6354C0.347763 6.6259 -0.129199 6.12116 0.0302993 5.64173C0.189795 5.1623 0.872873 5.04748 2.23903 4.81784L4.86263 4.37684L5.99449 2.03278Z" fill="#FFB000"/>
<path d="M25.9945 2.03278C26.6489 0.677592 26.976 0 27.5 0C28.024 0 28.3511 0.677592 29.0055 2.03278L30.1374 4.37684L32.761 4.81784C34.1271 5.04748 34.8102 5.1623 34.9697 5.64173C35.1292 6.12116 34.6522 6.6259 33.6984 7.6354L31.7674 9.67885L32.1769 12.4233C32.3927 13.8696 32.5007 14.5927 32.0789 14.8917C31.6571 15.1908 31.0156 14.8459 29.7327 14.1561L27.5 12.9557L25.2674 14.1561C23.9844 14.8459 23.3429 15.1908 22.9211 14.8917C22.4993 14.5927 22.6072 13.8696 22.8231 12.4233L23.2327 9.67885L21.3017 7.6354C20.3478 6.6259 19.8708 6.12116 20.0303 5.64173C20.1898 5.1623 20.8729 5.04748 22.239 4.81784L24.8626 4.37684L25.9945 2.03278Z" fill="#FFB000"/>
<path d="M45.9945 2.03278C46.6489 0.677592 46.976 0 47.5 0C48.024 0 48.3511 0.677592 49.0055 2.03278L50.1374 4.37684L52.761 4.81784C54.1271 5.04748 54.8102 5.1623 54.9697 5.64173C55.1292 6.12116 54.6522 6.6259 53.6984 7.6354L51.7674 9.67885L52.1769 12.4233C52.3927 13.8696 52.5007 14.5927 52.0789 14.8917C51.6571 15.1908 51.0156 14.8459 49.7327 14.1561L47.5 12.9557L45.2674 14.1561C43.9844 14.8459 43.3429 15.1908 42.9211 14.8917C42.4993 14.5927 42.6072 13.8696 42.8231 12.4233L43.2327 9.67885L41.3017 7.6354C40.3478 6.6259 39.8708 6.12116 40.0303 5.64173C40.1898 5.1623 40.8729 5.04748 42.239 4.81784L44.8626 4.37684L45.9945 2.03278Z" fill="#FFB000"/>
<path d="M65.9945 2.03278C66.6489 0.677592 66.976 0 67.5 0C68.024 0 68.3511 0.677592 69.0055 2.03278L70.1374 4.37684L72.761 4.81784C74.1271 5.04748 74.8102 5.1623 74.9697 5.64173C75.1292 6.12116 74.6522 6.6259 73.6984 7.6354L71.7674 9.67885L72.1769 12.4233C72.3927 13.8696 72.5007 14.5927 72.0789 14.8917C71.6571 15.1908 71.0156 14.8459 69.7327 14.1561L67.5 12.9557L65.2674 14.1561C63.9844 14.8459 63.3429 15.1908 62.9211 14.8917C62.4993 14.5927 62.6072 13.8696 62.8231 12.4233L63.2327 9.67885L61.3017 7.6354C60.3478 6.6259 59.8708 6.12116 60.0303 5.64173C60.1898 5.1623 60.8729 5.04748 62.239 4.81784L64.8626 4.37684L65.9945 2.03278Z" fill="#D1D3DA"/>
<path d="M85.9945 2.03278C86.6489 0.677592 86.976 0 87.5 0C88.024 0 88.3511 0.677592 89.0055 2.03278L90.1374 4.37684L92.761 4.81784C94.1271 5.04748 94.8102 5.1623 94.9697 5.64173C95.1292 6.12116 94.6522 6.6259 93.6984 7.6354L91.7674 9.67885L92.1769 12.4233C92.3927 13.8696 92.5007 14.5927 92.0789 14.8917C91.6571 15.1908 91.0156 14.8459 89.7327 14.1561L87.5 12.9557L85.2674 14.1561C83.9844 14.8459 83.3429 15.1908 82.9211 14.8917C82.4993 14.5927 82.6072 13.8696 82.8231 12.4233L83.2327 9.67885L81.3017 7.6354C80.3478 6.6259 79.8708 6.12116 80.0303 5.64173C80.1898 5.1623 80.8729 5.04748 82.239 4.81784L84.8626 4.37684L85.9945 2.03278Z" fill="#D1D3DA"/>
</svg>
